<?xml version="1.0" encoding="UTF-8"?>
<!DOCTYPE svg PUBLIC "-//W3C//DTD SVG 1.1//EN" "http://www.w3.org/Graphics/SVG/1.1/DTD/svg11.dtd"><svg version="1.1" viewBox="0 0 29700 21000" preserveAspectRatio="xMidYMid" fill-rule="evenodd" xmlns="http://www.w3.org/2000/svg" xmlns:xlink="http://www.w3.org/1999/xlink"><g visibility="visible" id="Default"><desc>Master slide</desc><g style="stroke:none;fill:none"><rect x="986" y="986" width="27730" height="19030"/></g></g><g visibility="visible" id="page1"><desc>Slide</desc><g><desc>Drawing</desc><g><g style="stroke:none;fill:rgb(153,204,255)"><path d="M 3750,4500 C 3892,4500 4000,4608 4000,4750 4000,4892 3892,5000 3750,5000 3608,5000 3500,4892 3500,4750 3500,4608 3608,4500 3750,4500 Z M 3500,4500 L 3500,4500 Z M 4001,5001 L 4001,5001 Z"/></g><g style="stroke:rgb(0,0,0);fill:none"><path style="fill:none" d="M 3750,4500 C 3892,4500 4000,4608 4000,4750 4000,4892 3892,5000 3750,5000 3608,5000 3500,4892 3500,4750 3500,4608 3608,4500 3750,4500"/><path style="fill:none" d="M 3500,4500 L 3500,4500"/><path style="fill:none" d="M 4001,5001 L 4001,5001"/></g><g/></g></g><g><desc>Drawing</desc><g><g style="stroke:none;fill:rgb(153,204,255)"><path d="M 3407,9000 C 3549,9000 3657,9108 3657,9250 3657,9392 3549,9500 3407,9500 3265,9500 3157,9392 3157,9250 3157,9108 3265,9000 3407,9000 Z M 3157,9000 L 3157,9000 Z M 3658,9501 L 3658,9501 Z"/></g><g style="stroke:rgb(0,0,0);fill:none"><path style="fill:none" d="M 3407,9000 C 3549,9000 3657,9108 3657,9250 3657,9392 3549,9500 3407,9500 3265,9500 3157,9392 3157,9250 3157,9108 3265,9000 3407,9000"/><path style="fill:none" d="M 3157,9000 L 3157,9000"/><path style="fill:none" d="M 3658,9501 L 3658,9501"/></g><g/></g></g><g><desc>Drawing</desc><g><g style="stroke:none;fill:rgb(153,204,255)"><path d="M 4250,6500 C 4392,6500 4500,6608 4500,6750 4500,6892 4392,7000 4250,7000 4108,7000 4000,6892 4000,6750 4000,6608 4108,6500 4250,6500 Z M 4000,6500 L 4000,6500 Z M 4501,7001 L 4501,7001 Z"/></g><g style="stroke:rgb(0,0,0);fill:none"><path style="fill:none" d="M 4250,6500 C 4392,6500 4500,6608 4500,6750 4500,6892 4392,7000 4250,7000 4108,7000 4000,6892 4000,6750 4000,6608 4108,6500 4250,6500"/><path style="fill:none" d="M 4000,6500 L 4000,6500"/><path style="fill:none" d="M 4501,7001 L 4501,7001"/></g><g/></g></g><g><desc>Drawing</desc><g><g style="stroke:none;fill:rgb(153,204,255)"><path d="M 7578,4500 C 7720,4500 7828,4608 7828,4750 7828,4892 7720,5000 7578,5000 7436,5000 7328,4892 7328,4750 7328,4608 7436,4500 7578,4500 Z M 7328,4500 L 7328,4500 Z M 7829,5001 L 7829,5001 Z"/></g><g style="stroke:rgb(0,0,0);fill:none"><path style="fill:none" d="M 7578,4500 C 7720,4500 7828,4608 7828,4750 7828,4892 7720,5000 7578,5000 7436,5000 7328,4892 7328,4750 7328,4608 7436,4500 7578,4500"/><path style="fill:none" d="M 7328,4500 L 7328,4500"/><path style="fill:none" d="M 7829,5001 L 7829,5001"/></g><g/></g></g><g><desc>Drawing</desc><g><g style="stroke:none;fill:rgb(153,204,255)"><path d="M 6250,8500 C 6392,8500 6500,8608 6500,8750 6500,8892 6392,9000 6250,9000 6108,9000 6000,8892 6000,8750 6000,8608 6108,8500 6250,8500 Z M 6000,8500 L 6000,8500 Z M 6501,9001 L 6501,9001 Z"/></g><g style="stroke:rgb(0,0,0);fill:none"><path style="fill:none" d="M 6250,8500 C 6392,8500 6500,8608 6500,8750 6500,8892 6392,9000 6250,9000 6108,9000 6000,8892 6000,8750 6000,8608 6108,8500 6250,8500"/><path style="fill:none" d="M 6000,8500 L 6000,8500"/><path style="fill:none" d="M 6501,9001 L 6501,9001"/></g><g/></g></g><g><desc>Drawing</desc><g><g style="stroke:none;fill:rgb(153,204,255)"><path d="M 9078,7000 C 9220,7000 9328,7108 9328,7250 9328,7392 9220,7500 9078,7500 8936,7500 8828,7392 8828,7250 8828,7108 8936,7000 9078,7000 Z M 8828,7000 L 8828,7000 Z M 9329,7501 L 9329,7501 Z"/></g><g style="stroke:rgb(0,0,0);fill:none"><path style="fill:none" d="M 9078,7000 C 9220,7000 9328,7108 9328,7250 9328,7392 9220,7500 9078,7500 8936,7500 8828,7392 8828,7250 8828,7108 8936,7000 9078,7000"/><path style="fill:none" d="M 8828,7000 L 8828,7000"/><path style="fill:none" d="M 9329,7501 L 9329,7501"/></g><g/></g></g><g><desc>Drawing</desc><g><g style="stroke:none;fill:rgb(153,204,255)"><path d="M 12078,8500 C 12220,8500 12328,8608 12328,8750 12328,8892 12220,9000 12078,9000 11936,9000 11828,8892 11828,8750 11828,8608 11936,8500 12078,8500 Z M 11828,8500 L 11828,8500 Z M 12329,9001 L 12329,9001 Z"/></g><g style="stroke:rgb(0,0,0);fill:none"><path style="fill:none" d="M 12078,8500 C 12220,8500 12328,8608 12328,8750 12328,8892 12220,9000 12078,9000 11936,9000 11828,8892 11828,8750 11828,8608 11936,8500 12078,8500"/><path style="fill:none" d="M 11828,8500 L 11828,8500"/><path style="fill:none" d="M 12329,9001 L 12329,9001"/></g><g/></g></g><g><desc>Drawing</desc><g><g style="stroke:none;fill:rgb(153,204,255)"><path d="M 10578,4500 C 10720,4500 10828,4608 10828,4750 10828,4892 10720,5000 10578,5000 10436,5000 10328,4892 10328,4750 10328,4608 10436,4500 10578,4500 Z M 10328,4500 L 10328,4500 Z M 10829,5001 L 10829,5001 Z"/></g><g style="stroke:rgb(0,0,0);fill:none"><path style="fill:none" d="M 10578,4500 C 10720,4500 10828,4608 10828,4750 10828,4892 10720,5000 10578,5000 10436,5000 10328,4892 10328,4750 10328,4608 10436,4500 10578,4500"/><path style="fill:none" d="M 10328,4500 L 10328,4500"/><path style="fill:none" d="M 10829,5001 L 10829,5001"/></g><g/></g></g><g><desc>Drawing</desc><g><g style="stroke:none;fill:rgb(153,204,255)"><path d="M 13078,4500 C 13220,4500 13328,4608 13328,4750 13328,4892 13220,5000 13078,5000 12936,5000 12828,4892 12828,4750 12828,4608 12936,4500 13078,4500 Z M 12828,4500 L 12828,4500 Z M 13329,5001 L 13329,5001 Z"/></g><g style="stroke:rgb(0,0,0);fill:none"><path style="fill:none" d="M 13078,4500 C 13220,4500 13328,4608 13328,4750 13328,4892 13220,5000 13078,5000 12936,5000 12828,4892 12828,4750 12828,4608 12936,4500 13078,4500"/><path style="fill:none" d="M 12828,4500 L 12828,4500"/><path style="fill:none" d="M 13329,5001 L 13329,5001"/></g><g/></g></g><g><desc>Drawing</desc><g><g style="stroke:none;fill:rgb(153,204,255)"><path d="M 15078,8500 C 15220,8500 15328,8608 15328,8750 15328,8892 15220,9000 15078,9000 14936,9000 14828,8892 14828,8750 14828,8608 14936,8500 15078,8500 Z M 14828,8500 L 14828,8500 Z M 15329,9001 L 15329,9001 Z"/></g><g style="stroke:rgb(0,0,0);fill:none"><path style="fill:none" d="M 15078,8500 C 15220,8500 15328,8608 15328,8750 15328,8892 15220,9000 15078,9000 14936,9000 14828,8892 14828,8750 14828,8608 14936,8500 15078,8500"/><path style="fill:none" d="M 14828,8500 L 14828,8500"/><path style="fill:none" d="M 15329,9001 L 15329,9001"/></g><g/></g></g><g><desc>Drawing</desc><g><g style="stroke:none;fill:rgb(153,204,255)"><path d="M 17913,4500 C 18055,4500 18163,4608 18163,4750 18163,4892 18055,5000 17913,5000 17771,5000 17663,4892 17663,4750 17663,4608 17771,4500 17913,4500 Z M 17663,4500 L 17663,4500 Z M 18164,5001 L 18164,5001 Z"/></g><g style="stroke:rgb(0,0,0);fill:none"><path style="fill:none" d="M 17913,4500 C 18055,4500 18163,4608 18163,4750 18163,4892 18055,5000 17913,5000 17771,5000 17663,4892 17663,4750 17663,4608 17771,4500 17913,4500"/><path style="fill:none" d="M 17663,4500 L 17663,4500"/><path style="fill:none" d="M 18164,5001 L 18164,5001"/></g><g/></g></g><g><desc>Drawing</desc><g><g style="stroke:none;fill:rgb(153,204,255)"><path d="M 17913,9000 C 18055,9000 18163,9108 18163,9250 18163,9392 18055,9500 17913,9500 17771,9500 17663,9392 17663,9250 17663,9108 17771,9000 17913,9000 Z M 17663,9000 L 17663,9000 Z M 18164,9501 L 18164,9501 Z"/></g><g style="stroke:rgb(0,0,0);fill:none"><path style="fill:none" d="M 17913,9000 C 18055,9000 18163,9108 18163,9250 18163,9392 18055,9500 17913,9500 17771,9500 17663,9392 17663,9250 17663,9108 17771,9000 17913,9000"/><path style="fill:none" d="M 17663,9000 L 17663,9000"/><path style="fill:none" d="M 18164,9501 L 18164,9501"/></g><g/></g></g><g><desc>Drawing</desc><g><g style="stroke:none;fill:rgb(153,204,255)"><path d="M 16413,6500 C 16555,6500 16663,6608 16663,6750 16663,6892 16555,7000 16413,7000 16271,7000 16163,6892 16163,6750 16163,6608 16271,6500 16413,6500 Z M 16163,6500 L 16163,6500 Z M 16664,7001 L 16664,7001 Z"/></g><g style="stroke:rgb(0,0,0);fill:none"><path style="fill:none" d="M 16413,6500 C 16555,6500 16663,6608 16663,6750 16663,6892 16555,7000 16413,7000 16271,7000 16163,6892 16163,6750 16163,6608 16271,6500 16413,6500"/><path style="fill:none" d="M 16163,6500 L 16163,6500"/><path style="fill:none" d="M 16664,7001 L 16664,7001"/></g><g/></g></g><g><desc>Drawing</desc><g><g style="stroke:none;fill:rgb(0,0,0)"><path d="M 4568,4742 C 4855,4772 5104,4823 5316,4891 L 5305,4924 5295,4958 C 5087,4891 4842,4841 4561,4812 L 4565,4777 4568,4742 Z"/><path d="M 5316,4891 C 5530,4959 5706,5044 5846,5140 L 5827,5169 5807,5198 C 5672,5106 5501,5024 5295,4958 L 5305,4924 5316,4891 Z"/><path d="M 5846,5140 C 5917,5188 5979,5239 6032,5292 L 6007,5317 5983,5342 C 5933,5292 5874,5243 5807,5198 L 5827,5169 5846,5140 Z"/><path d="M 6032,5292 C 6086,5346 6130,5401 6165,5458 L 6135,5476 6106,5495 C 6073,5442 6032,5391 5983,5342 L 6007,5317 6032,5292 Z"/><path d="M 6165,5458 C 6201,5515 6227,5573 6245,5633 L 6212,5643 6178,5653 C 6162,5599 6138,5546 6106,5495 L 6135,5476 6165,5458 Z"/><path d="M 6245,5633 C 6263,5692 6272,5752 6272,5812 L 6237,5812 6202,5812 C 6202,5759 6194,5705 6178,5653 L 6212,5643 6245,5633 Z"/><path d="M 6272,5812 C 6272,5875 6262,5938 6242,6000 L 6209,5989 6175,5979 C 6193,5924 6202,5868 6202,5812 L 6237,5812 6272,5812 Z"/><path d="M 6242,6000 C 6222,6062 6193,6122 6154,6180 L 6125,6160 6096,6141 C 6131,6088 6158,6034 6175,5979 L 6209,5989 6242,6000 Z"/><path d="M 6154,6180 C 6115,6237 6067,6293 6010,6345 L 5986,6319 5963,6293 C 6016,6245 6060,6194 6096,6141 L 6125,6160 6154,6180 Z"/><path d="M 6010,6345 C 5953,6397 5887,6445 5811,6490 L 5793,6460 5775,6430 C 5846,6388 5909,6342 5963,6293 L 5986,6319 6010,6345 Z"/><path d="M 5811,6490 C 5662,6579 5477,6653 5257,6705 L 5249,6671 5241,6637 C 5453,6587 5632,6516 5775,6430 L 5793,6460 5811,6490 Z"/><path d="M 5257,6705 C 5039,6756 4786,6785 4500,6785 L 4500,6750 4500,6715 C 4780,6715 5028,6687 5241,6637 L 5249,6671 5257,6705 Z"/><path d="M 4000,4750 L 4667,5018 4695,4564 4000,4750 Z"/></g><g/></g></g><g><desc>Drawing</desc><g><g style="stroke:none;fill:rgb(0,0,0)"><path d="M 4046,9202 C 4401,9178 4706,9122 4963,9040 L 4973,9074 4984,9107 C 4722,9190 4412,9248 4050,9272 L 4048,9237 4046,9202 Z"/><path d="M 4963,9040 C 5218,8960 5426,8855 5590,8734 L 5610,8763 5631,8791 C 5462,8915 5247,9024 4984,9107 L 4973,9074 4963,9040 Z"/><path d="M 5590,8734 C 5671,8675 5741,8611 5801,8545 L 5827,8568 5853,8592 C 5790,8661 5716,8728 5631,8791 L 5610,8763 5590,8734 Z"/><path d="M 5801,8545 C 5860,8479 5909,8410 5948,8340 L 5979,8357 6009,8374 C 5968,8449 5916,8522 5853,8592 L 5827,8568 5801,8545 Z"/><path d="M 5948,8340 C 5986,8270 6015,8198 6034,8126 L 6068,8135 6102,8144 C 6081,8222 6051,8299 6009,8374 L 5979,8357 5948,8340 Z"/><path d="M 6034,8126 C 6053,8054 6062,7981 6062,7909 L 6097,7909 6132,7909 C 6132,7987 6122,8066 6102,8144 L 6068,8135 6034,8126 Z"/><path d="M 6062,7909 C 6062,7838 6053,7767 6035,7698 L 6069,7689 6103,7680 C 6122,7755 6132,7832 6132,7909 L 6097,7909 6062,7909 Z"/><path d="M 6035,7698 C 6018,7628 5992,7560 5957,7494 L 5988,7478 6019,7461 C 6056,7532 6084,7605 6103,7680 L 6069,7689 6035,7698 Z"/><path d="M 5957,7494 C 5922,7428 5879,7364 5828,7304 L 5855,7282 5882,7259 C 5936,7323 5982,7391 6019,7461 L 5988,7478 5957,7494 Z"/><path d="M 5828,7304 C 5777,7244 5718,7187 5652,7135 L 5673,7107 5695,7080 C 5765,7135 5828,7195 5882,7259 L 5855,7282 5828,7304 Z"/><path d="M 5652,7135 C 5518,7029 5353,6942 5161,6881 L 5171,6848 5182,6814 C 5383,6878 5555,6969 5695,7080 L 5673,7107 5652,7135 Z"/><path d="M 5161,6881 C 4967,6820 4746,6785 4500,6785 L 4500,6750 4500,6715 C 4754,6715 4982,6751 5182,6814 L 5171,6848 5161,6881 Z"/><path d="M 3657,9250 L 4120,9384 4108,9079 3657,9250 Z"/></g><g/></g></g><g><desc>Drawing</desc><g><g style="stroke:none;fill:rgb(0,0,0)"><path d="M 3785,5000 C 3785,5188 3784,5357 3781,5509 L 3747,5508 3712,5508 C 3714,5356 3715,5187 3715,5000 L 3750,5000 3785,5000 Z"/><path d="M 3781,5509 C 3779,5661 3776,5797 3772,5918 L 3737,5917 3702,5916 C 3706,5795 3709,5660 3712,5508 L 3747,5508 3781,5509 Z"/><path d="M 3772,5918 C 3767,6040 3762,6147 3756,6242 L 3721,6239 3686,6237 C 3692,6143 3697,6037 3702,5916 L 3737,5917 3772,5918 Z"/><path d="M 3756,6242 C 3750,6337 3743,6419 3736,6492 L 3701,6489 3666,6485 C 3674,6413 3680,6331 3686,6237 L 3721,6239 3756,6242 Z"/><path d="M 3736,6492 C 3728,6565 3720,6628 3712,6683 L 3677,6678 3642,6672 C 3651,6618 3659,6557 3666,6485 L 3701,6489 3736,6492 Z"/><path d="M 3712,6683 C 3703,6739 3694,6786 3684,6828 L 3650,6821 3616,6813 C 3625,6772 3634,6726 3642,6672 L 3677,6678 3712,6683 Z"/><path d="M 3684,6828 C 3675,6870 3665,6907 3655,6940 L 3621,6930 3588,6920 C 3597,6888 3607,6853 3616,6813 L 3650,6821 3684,6828 Z"/><path d="M 3655,6940 C 3644,6973 3634,7003 3624,7031 L 3591,7019 3558,7007 C 3568,6980 3578,6951 3588,6920 L 3621,6930 3655,6940 Z"/><path d="M 3624,7031 C 3604,7086 3583,7137 3564,7200 L 3530,7190 3497,7180 C 3517,7115 3537,7063 3558,7007 L 3591,7019 3624,7031 Z"/><path d="M 3564,7200 C 3554,7232 3545,7266 3536,7306 L 3502,7299 3467,7291 C 3477,7249 3487,7213 3497,7180 L 3530,7190 3564,7200 Z"/><path d="M 3536,7306 C 3527,7347 3518,7392 3510,7445 L 3475,7440 3441,7435 C 3449,7380 3458,7333 3467,7291 L 3502,7299 3536,7306 Z"/><path d="M 3510,7445 C 3501,7499 3494,7560 3487,7631 L 3452,7628 3417,7624 C 3424,7552 3432,7489 3441,7435 L 3475,7440 3510,7445 Z"/><path d="M 3487,7631 C 3480,7703 3473,7784 3467,7877 L 3433,7875 3398,7873 C 3403,7779 3410,7697 3417,7624 L 3452,7628 3487,7631 Z"/><path d="M 3467,7877 C 3462,7971 3457,8076 3453,8196 L 3418,8195 3383,8194 C 3387,8073 3392,7967 3398,7873 L 3433,7875 3467,7877 Z"/><path d="M 3453,8196 C 3449,8316 3446,8451 3444,8601 L 3409,8601 3374,8601 C 3376,8449 3379,8314 3383,8194 L 3418,8195 3453,8196 Z"/><path d="M 3407,9000 L 3563,8544 3258,8541 3407,9000 Z"/></g><g/></g></g><g><desc>Drawing</desc><g><g style="stroke:none;fill:rgb(0,0,0)"><path d="M 7328,4785 C 7286,4785 7245,4789 7205,4797 L 7198,4763 7191,4729 C 7235,4720 7281,4715 7328,4715 L 7328,4750 7328,4785 Z"/><path d="M 7205,4797 C 7166,4806 7128,4818 7091,4835 L 7077,4803 7062,4771 C 7104,4752 7146,4738 7191,4729 L 7198,4763 7205,4797 Z"/><path d="M 7091,4835 C 7018,4868 6950,4918 6887,4985 L 6862,4961 6836,4937 C 6905,4863 6981,4808 7062,4771 L 7077,4803 7091,4835 Z"/><path d="M 6887,4985 C 6823,5053 6765,5139 6712,5241 L 6681,5225 6650,5209 C 6706,5100 6768,5010 6836,4937 L 6862,4961 6887,4985 Z"/><path d="M 6712,5241 C 6658,5345 6610,5466 6567,5605 L 6534,5595 6500,5584 C 6545,5441 6594,5316 6650,5209 L 6681,5225 6712,5241 Z"/><path d="M 6567,5605 C 6480,5885 6415,6235 6369,6654 L 6334,6651 6299,6647 C 6346,6222 6412,5868 6500,5584 L 6534,5595 6567,5605 Z"/><path d="M 6369,6654 C 6323,7076 6296,7567 6288,8129 L 6253,8129 6218,8128 C 6226,7564 6253,7070 6299,6647 L 6334,6651 6369,6654 Z"/><path d="M 6250,8500 L 6407,8044 6102,8041 6250,8500 Z"/></g><g/></g></g><g><desc>Drawing</desc><g><g style="stroke:none;fill:rgb(0,0,0)"><path d="M 6427,8892 C 6867,8892 7236,8870 7546,8826 L 7550,8860 7555,8895 C 7243,8940 6871,8962 6427,8962 L 6427,8927 6427,8892 Z"/><path d="M 7546,8826 C 7852,8782 8100,8716 8300,8628 L 8314,8660 8328,8692 C 8124,8782 7870,8850 7555,8895 L 7550,8860 7546,8826 Z"/><path d="M 8300,8628 C 8398,8585 8485,8536 8561,8482 L 8581,8510 8602,8539 C 8522,8596 8431,8647 8328,8692 L 8314,8660 8300,8628 Z"/><path d="M 8561,8482 C 8637,8428 8702,8369 8758,8304 L 8784,8327 8811,8350 C 8751,8419 8682,8482 8602,8539 L 8581,8510 8561,8482 Z"/><path d="M 8758,8304 C 8814,8240 8861,8170 8900,8094 L 8931,8110 8962,8126 C 8920,8207 8870,8281 8811,8350 L 8784,8327 8758,8304 Z"/><path d="M 8900,8094 C 8939,8018 8971,7937 8996,7850 L 9030,7860 9063,7870 C 9037,7961 9003,8047 8962,8126 L 8931,8110 8900,8094 Z"/><path d="M 9078,7500 L 8850,7925 9150,7977 9078,7500 Z"/></g><g/></g></g><g><desc>Drawing</desc><g><g style="stroke:none;fill:rgb(0,0,0)"><path d="M 9034,6633 C 9018,6322 8985,6050 8931,5816 L 8965,5808 8999,5800 C 9054,6037 9087,6314 9104,6630 L 9069,6631 9034,6633 Z"/><path d="M 8931,5816 C 8877,5585 8804,5393 8707,5239 L 8737,5220 8766,5202 C 8867,5361 8944,5561 8999,5800 L 8965,5808 8931,5816 Z"/><path d="M 8707,5239 C 8659,5163 8606,5097 8546,5040 L 8570,5015 8594,4989 C 8658,5050 8715,5121 8766,5202 L 8737,5220 8707,5239 Z"/><path d="M 8546,5040 C 8486,4983 8421,4936 8348,4899 L 8365,4868 8381,4837 C 8459,4877 8530,4928 8594,4989 L 8570,5015 8546,5040 Z"/><path d="M 8348,4899 C 8276,4861 8197,4832 8111,4814 L 8118,4779 8126,4745 C 8218,4765 8303,4796 8381,4837 L 8365,4868 8348,4899 Z"/><path d="M 8111,4814 C 8024,4794 7930,4785 7828,4785 L 7828,4750 7828,4715 C 7935,4715 8034,4725 8126,4745 L 8118,4779 8111,4814 Z"/><path d="M 9078,7000 L 9216,6538 8911,6548 9078,7000 Z"/></g><g/></g></g><g><desc>Drawing</desc><g><g style="stroke:none;fill:rgb(0,0,0)"><path d="M 11528,8955 C 11117,8940 10758,8903 10450,8841 L 10457,8807 10464,8773 C 10768,8834 11124,8870 11530,8885 L 11529,8920 11528,8955 Z"/><path d="M 10450,8841 C 10139,8779 9881,8691 9674,8575 L 9691,8545 9708,8514 C 9909,8627 10161,8712 10464,8773 L 10457,8807 10450,8841 Z"/><path d="M 9674,8575 C 9569,8516 9477,8451 9399,8377 L 9423,8352 9447,8326 C 9521,8396 9608,8458 9708,8514 L 9691,8545 9674,8575 Z"/><path d="M 9399,8377 C 9320,8304 9254,8222 9201,8133 L 9231,8115 9261,8097 C 9311,8181 9372,8257 9447,8326 L 9423,8352 9399,8377 Z"/><path d="M 9201,8133 C 9148,8043 9109,7946 9082,7840 L 9116,7832 9150,7823 C 9175,7922 9212,8014 9261,8097 L 9231,8115 9201,8133 Z"/><path d="M 9082,7840 C 9056,7735 9043,7622 9043,7500 L 9078,7500 9113,7500 C 9113,7616 9125,7724 9150,7823 L 9116,7832 9082,7840 Z"/><path d="M 11901,8927 L 11447,8764 11440,9069 11901,8927 Z"/></g><g/></g></g><g><desc>Drawing</desc><g><g style="stroke:none;fill:rgb(0,0,0)"><path d="M 10328,4785 C 10227,4785 10132,4796 10044,4819 L 10035,4785 10026,4751 C 10120,4727 10221,4715 10328,4715 L 10328,4750 10328,4785 Z"/><path d="M 10044,4819 C 9956,4842 9874,4875 9799,4921 L 9781,4891 9763,4861 C 9844,4812 9932,4776 10026,4751 L 10035,4785 10044,4819 Z"/><path d="M 9799,4921 C 9723,4966 9654,5022 9592,5090 L 9566,5066 9540,5043 C 9608,4970 9682,4909 9763,4861 L 9781,4891 9799,4921 Z"/><path d="M 9592,5090 C 9528,5159 9471,5238 9421,5329 L 9390,5313 9360,5296 C 9413,5199 9473,5115 9540,5043 L 9566,5066 9592,5090 Z"/><path d="M 9421,5329 C 9318,5514 9242,5745 9190,6022 L 9156,6016 9122,6009 C 9174,5724 9254,5486 9360,5296 L 9390,5313 9421,5329 Z"/><path d="M 9190,6022 C 9139,6301 9113,6627 9113,7000 L 9078,7000 9043,7000 C 9043,6623 9069,6292 9122,6009 L 9156,6016 9190,6022 Z"/></g><g/></g></g><g><desc>Drawing</desc><g><g style="stroke:none;fill:rgb(0,0,0)"><path d="M 11196,4806 C 11274,4848 11346,4898 11414,4958 L 11390,4984 11367,5010 C 11304,4953 11236,4907 11163,4868 L 11180,4837 11196,4806 Z"/><path d="M 11414,4958 C 11481,5019 11544,5090 11602,5174 L 11573,5194 11544,5213 C 11490,5134 11431,5067 11367,5010 L 11390,4984 11414,4958 Z"/><path d="M 11602,5174 C 11659,5257 11712,5353 11759,5465 L 11727,5478 11695,5492 C 11649,5386 11599,5293 11544,5213 L 11573,5194 11602,5174 Z"/><path d="M 11759,5465 C 11807,5575 11849,5700 11887,5843 L 11854,5852 11820,5861 C 11783,5722 11741,5600 11695,5492 L 11727,5478 11759,5465 Z"/><path d="M 11887,5843 C 11925,5985 11958,6144 11986,6322 L 11952,6327 11917,6333 C 11889,6157 11857,6001 11820,5861 L 11854,5852 11887,5843 Z"/><path d="M 11986,6322 C 12015,6500 12038,6697 12057,6915 L 12022,6918 11987,6921 C 11968,6704 11945,6509 11917,6333 L 11952,6327 11986,6322 Z"/><path d="M 12057,6915 C 12094,7352 12113,7874 12113,8500 L 12078,8500 12043,8500 C 12043,7876 12024,7356 11987,6921 L 12022,6918 12057,6915 Z"/><path d="M 10828,4750 L 11219,5033 11310,4742 10828,4750 Z"/></g><g/></g></g><g><desc>Drawing</desc><g><g style="stroke:none;fill:rgb(0,0,0)"><path d="M 13282,5325 C 13276,5461 13267,5582 13255,5690 L 13220,5686 13185,5682 C 13197,5575 13206,5456 13212,5322 L 13247,5323 13282,5325 Z"/><path d="M 13255,5690 C 13243,5798 13228,5893 13211,5978 L 13177,5971 13143,5964 C 13159,5881 13174,5788 13185,5682 L 13220,5686 13255,5690 Z"/><path d="M 13211,5978 C 13194,6063 13175,6137 13153,6202 L 13120,6191 13087,6180 C 13108,6118 13126,6046 13143,5964 L 13177,5971 13211,5978 Z"/><path d="M 13153,6202 C 13132,6268 13108,6324 13083,6374 L 13052,6358 13021,6342 C 13044,6296 13067,6242 13087,6180 L 13120,6191 13153,6202 Z"/><path d="M 13083,6374 C 13033,6474 12976,6545 12916,6605 L 12891,6580 12867,6555 C 12922,6500 12974,6435 13021,6342 L 13052,6358 13083,6374 Z"/><path d="M 12916,6605 C 12858,6663 12798,6709 12738,6760 L 12715,6733 12693,6707 C 12751,6657 12810,6612 12867,6555 L 12891,6580 12916,6605 Z"/><path d="M 12738,6760 C 12681,6808 12625,6861 12572,6934 L 12544,6913 12516,6893 C 12572,6815 12632,6759 12693,6707 L 12715,6733 12738,6760 Z"/><path d="M 12572,6934 C 12546,6970 12521,7011 12497,7059 L 12466,7043 12435,7028 C 12460,6976 12487,6932 12516,6893 L 12544,6913 12572,6934 Z"/><path d="M 12497,7059 C 12473,7107 12451,7163 12430,7227 L 12397,7216 12363,7205 C 12385,7137 12409,7079 12435,7028 L 12466,7043 12497,7059 Z"/><path d="M 12430,7227 C 12409,7292 12390,7365 12373,7450 L 12338,7443 12304,7436 C 12322,7349 12342,7272 12363,7205 L 12397,7216 12430,7227 Z"/><path d="M 12373,7450 C 12356,7536 12341,7632 12329,7741 L 12294,7737 12259,7733 C 12271,7622 12287,7524 12304,7436 L 12338,7443 12373,7450 Z"/><path d="M 12329,7741 C 12316,7851 12307,7974 12300,8112 L 12265,8110 12230,8108 C 12237,7969 12247,7844 12259,7733 L 12294,7737 12329,7741 Z"/><path d="M 12300,8112 C 12293,8250 12290,8403 12290,8573 L 12255,8573 12220,8573 C 12220,8402 12224,8247 12230,8108 L 12265,8110 12300,8112 Z"/><path d="M 13255,4927 L 13091,5380 13396,5388 13255,4927 Z"/></g><g/></g></g><g><desc>Drawing</desc><g><g style="stroke:none;fill:rgb(0,0,0)"><path d="M 12328,8715 L 14462,8715 14462,8750 14462,8785 12328,8785 12328,8750 12328,8715 Z"/><path d="M 14828,8750 L 14371,8598 14371,8903 14828,8750 Z"/></g><g/></g></g><g><desc>Drawing</desc><g><g style="stroke:none;fill:rgb(0,0,0)"><path d="M 17271,4795 C 16892,4815 16575,4863 16312,4933 L 16303,4899 16294,4866 C 16560,4795 16883,4745 17267,4725 L 17269,4760 17271,4795 Z"/><path d="M 16312,4933 C 16051,5002 15845,5092 15685,5195 L 15666,5166 15647,5137 C 15812,5030 16025,4937 16294,4866 L 16303,4899 16312,4933 Z"/><path d="M 15685,5195 C 15606,5246 15539,5300 15483,5357 L 15458,5332 15433,5307 C 15493,5248 15564,5191 15647,5137 L 15666,5166 15685,5195 Z"/><path d="M 15483,5357 C 15427,5413 15382,5471 15346,5530 L 15316,5512 15286,5494 C 15324,5430 15373,5367 15433,5307 L 15458,5332 15483,5357 Z"/><path d="M 15346,5530 C 15311,5588 15285,5648 15269,5708 L 15235,5699 15201,5690 C 15219,5624 15247,5558 15286,5494 L 15316,5512 15346,5530 Z"/><path d="M 15269,5708 C 15252,5768 15244,5829 15244,5888 L 15209,5888 15174,5888 C 15174,5822 15183,5756 15201,5690 L 15235,5699 15269,5708 Z"/><path d="M 15244,5888 C 15244,5942 15250,5995 15263,6046 L 15228,6054 15194,6062 C 15181,6005 15174,5947 15174,5888 L 15209,5888 15244,5888 Z"/><path d="M 15263,6046 C 15275,6098 15293,6149 15316,6198 L 15284,6213 15253,6228 C 15227,6174 15208,6119 15194,6062 L 15228,6054 15263,6046 Z"/><path d="M 15316,6198 C 15363,6295 15430,6385 15513,6462 L 15490,6488 15466,6514 C 15376,6431 15303,6333 15253,6228 L 15284,6213 15316,6198 Z"/><path d="M 15513,6462 C 15597,6539 15696,6602 15806,6646 L 15793,6679 15780,6711 C 15662,6664 15555,6596 15466,6514 L 15490,6488 15513,6462 Z"/><path d="M 15806,6646 C 15916,6690 16037,6715 16163,6715 L 16163,6750 16163,6785 C 16027,6785 15898,6758 15780,6711 L 15793,6679 15806,6646 Z"/><path d="M 17663,4750 L 17201,4612 17211,4917 17663,4750 Z"/></g><g/></g></g><g><desc>Drawing</desc><g><g style="stroke:none;fill:rgb(0,0,0)"><path d="M 17267,9273 C 16882,9247 16559,9185 16292,9097 L 16303,9063 16314,9030 C 16576,9117 16893,9178 17272,9203 L 17270,9238 17267,9273 Z"/><path d="M 16292,9097 C 16023,9007 15809,8890 15644,8757 L 15666,8730 15688,8703 C 15848,8831 16054,8944 16314,9030 L 16303,9063 16292,9097 Z"/><path d="M 15644,8757 C 15561,8690 15490,8619 15431,8544 L 15458,8522 15485,8501 C 15542,8571 15609,8639 15688,8703 L 15666,8730 15644,8757 Z"/><path d="M 15431,8544 C 15371,8470 15323,8392 15285,8313 L 15316,8298 15348,8283 C 15383,8357 15429,8430 15485,8501 L 15458,8522 15431,8544 Z"/><path d="M 15285,8313 C 15246,8234 15219,8153 15201,8071 L 15235,8064 15269,8056 C 15286,8132 15312,8208 15348,8283 L 15316,8298 15285,8313 Z"/><path d="M 15201,8071 C 15183,7990 15174,7908 15174,7827 L 15209,7827 15244,7827 C 15244,7903 15252,7980 15269,8056 L 15235,8064 15201,8071 Z"/><path d="M 15174,7827 C 15174,7683 15202,7541 15252,7409 L 15284,7422 15317,7434 C 15270,7558 15244,7691 15244,7827 L 15209,7827 15174,7827 Z"/><path d="M 15252,7409 C 15302,7278 15374,7157 15463,7055 L 15490,7078 15516,7101 C 15432,7197 15364,7311 15317,7434 L 15284,7422 15252,7409 Z"/><path d="M 15463,7055 C 15553,6952 15659,6867 15777,6808 L 15793,6839 15809,6871 C 15699,6926 15599,7005 15516,7101 L 15490,7078 15463,7055 Z"/><path d="M 15777,6808 C 15837,6778 15899,6755 15963,6739 L 15972,6773 15980,6807 C 15921,6822 15863,6843 15809,6871 L 15793,6839 15777,6808 Z"/><path d="M 15963,6739 C 16028,6723 16095,6715 16163,6715 L 16163,6750 16163,6785 C 16100,6785 16039,6793 15980,6807 L 15972,6773 15963,6739 Z"/><path d="M 17663,9250 L 17212,9080 17200,9384 17663,9250 Z"/></g><g/></g></g></g></svg>